<mxfile host="app.diagrams.net" modified="2023-06-02T07:41:01.216Z" agent="Mozilla/5.0 (Windows NT 10.0; Win64; x64) AppleWebKit/537.36 (KHTML, like Gecko) Chrome/113.0.0.0 Safari/537.36" version="21.3.7" etag="LMtwUCVg4Kxu3QFmVNF7" type="github">
  <diagram name="페이지-1" id="un216E8AMvcgq2W92UBf">
    <mxGraphModel>
      <root>
        <mxCell id="0" />
        <mxCell id="1" parent="0" />
      </root>
    </mxGraphModel>
  </diagram>
</mxfile>
